<svg width="150" height="26" viewBox="0 0 150 26" fill="none" xmlns="http://www.w3.org/2000/svg">
<path d="M34.7628 17H32.7855L35.7983 8.27273H38.1761L41.1847 17H39.2074L37.0213 10.267H36.9531L34.7628 17ZM34.6392 13.5696H39.3097V15.0099H34.6392V13.5696ZM42.2351 17V8.27273H44.0803V15.4787H47.8217V17H42.2351ZM47.6214 9.79403V8.27273H54.7891V9.79403H52.1172V17H50.2933V9.79403H47.6214ZM55.9695 17V8.27273H61.8501V9.79403H57.8146V11.8736H61.5476V13.3949H57.8146V15.4787H61.8672V17H55.9695ZM65.0472 8.27273L66.8072 11.2472H66.8754L68.6438 8.27273H70.7276L68.0643 12.6364L70.7873 17H68.6651L66.8754 14.0213H66.8072L65.0174 17H62.9038L65.6353 12.6364L62.9549 8.27273H65.0472ZM74.6726 8.27273H76.9482L79.3516 14.1364H79.4538L81.8572 8.27273H84.1328V17H82.343V11.3196H82.2706L80.0121 16.9574H78.7933L76.5348 11.2983H76.4624V17H74.6726V8.27273ZM93.6729 12.6364C93.6729 13.5881 93.4925 14.3977 93.1317 15.0653C92.7738 15.733 92.2852 16.2429 91.6658 16.5952C91.0494 16.9446 90.3562 17.1193 89.5863 17.1193C88.8107 17.1193 88.1147 16.9432 87.4982 16.5909C86.8817 16.2386 86.3945 15.7287 86.0366 15.0611C85.6786 14.3935 85.4996 13.5852 85.4996 12.6364C85.4996 11.6847 85.6786 10.875 86.0366 10.2074C86.3945 9.53977 86.8817 9.03125 87.4982 8.68182C88.1147 8.32955 88.8107 8.15341 89.5863 8.15341C90.3562 8.15341 91.0494 8.32955 91.6658 8.68182C92.2852 9.03125 92.7738 9.53977 93.1317 10.2074C93.4925 10.875 93.6729 11.6847 93.6729 12.6364ZM91.8022 12.6364C91.8022 12.0199 91.7099 11.5 91.5252 11.0767C91.3434 10.6534 91.0863 10.3324 90.7539 10.1136C90.4215 9.89489 90.0323 9.78551 89.5863 9.78551C89.1403 9.78551 88.7511 9.89489 88.4187 10.1136C88.0863 10.3324 87.8278 10.6534 87.6431 11.0767C87.4613 11.5 87.3704 12.0199 87.3704 12.6364C87.3704 13.2528 87.4613 13.7727 87.6431 14.196C87.8278 14.6193 88.0863 14.9403 88.4187 15.1591C88.7511 15.3778 89.1403 15.4872 89.5863 15.4872C90.0323 15.4872 90.4215 15.3778 90.7539 15.1591C91.0863 14.9403 91.3434 14.6193 91.5252 14.196C91.7099 13.7727 91.8022 13.2528 91.8022 12.6364ZM95.0398 8.27273H97.3153L99.7188 14.1364H99.821L102.224 8.27273H104.5V17H102.71V11.3196H102.638L100.379 16.9574H99.1605L96.902 11.2983H96.8295V17H95.0398V8.27273ZM106.02 17V8.27273H111.901V9.79403H107.865V11.8736H111.598V13.3949H107.865V15.4787H111.918V17H106.02ZM120.668 8.27273V17H119.074L115.277 11.5071H115.213V17H113.368V8.27273H114.987L118.754 13.7614H118.831V8.27273H120.668ZM121.86 9.79403V8.27273H129.027V9.79403H126.355V17H124.532V9.79403H121.86ZM135.598 8.27273H137.444V13.9403C137.444 14.5767 137.292 15.1335 136.988 15.6108C136.686 16.0881 136.265 16.4602 135.722 16.7273C135.179 16.9915 134.547 17.1236 133.826 17.1236C133.101 17.1236 132.468 16.9915 131.925 16.7273C131.382 16.4602 130.961 16.0881 130.659 15.6108C130.358 15.1335 130.208 14.5767 130.208 13.9403V8.27273H132.053V13.7827C132.053 14.1151 132.125 14.4105 132.27 14.669C132.418 14.9276 132.625 15.1307 132.892 15.2784C133.159 15.4261 133.471 15.5 133.826 15.5C134.184 15.5 134.495 15.4261 134.759 15.2784C135.026 15.1307 135.232 14.9276 135.377 14.669C135.525 14.4105 135.598 14.1151 135.598 13.7827V8.27273ZM138.962 8.27273H141.237L143.641 14.1364H143.743L146.146 8.27273H148.422V17H146.632V11.3196H146.56L144.301 16.9574H143.082L140.824 11.2983H140.751V17H138.962V8.27273Z" fill="#D57013"/>
<path opacity="0.2" d="M13 26C20.1797 26 26 20.1797 26 13C26 5.8203 20.1797 0 13 0C5.8203 0 0 5.8203 0 13C0 20.1797 5.8203 26 13 26Z" fill="#1C2730"/>
<path fill-rule="evenodd" clip-rule="evenodd" d="M5.19406 19.4213L13.1553 11.0836L21.1941 19.5L13.1911 6.5L5.19406 19.4213ZM14.3105 14.3957H14.3005L13.1015 12.997L11.8215 14.3957H14.3005L14.3105 14.4074V14.3957ZM9.5111 16.6901H16.6805L15.2276 15.2128L10.9221 15.2312L9.51086 16.6722L9.5111 16.6901Z" fill="#D57013"/>
</svg>
